<svg xmlns="http://www.w3.org/2000/svg" xmlns:xlink="http://www.w3.org/1999/xlink" version="1.1" id="Layer_1" x="0px" y="0px" style="enable-background:new 0 0 1200 1200;" xml:space="preserve" viewBox="475.22 433.58 236.62 379.89">
<style type="text/css">
	.st0{fill:#3CB5AF;}
	.st1{fill:#414042;}
	.st2{fill:#134C84;}
	.st3{fill:#FFFFFF;}
	.st4{opacity:0.14;}
	.st5{fill:#1E1E1E;}
</style>
<g>
	<rect x="475.62" y="693.27" class="st0" width="99.95" height="59.74"/>
</g>
<g>
	<path class="st1" d="M493.92,770.11h7.81l18.77,43.36h-7.87l-3.46-8.25H486.3l-3.46,8.25h-7.62L493.92,770.11z M506.45,798.7   l-8.75-20.17l-8.75,20.17H506.45z"/>
	<path class="st1" d="M563.12,796.15l-12.6,17.32h-8.5l17.07-22.61l-15.43-20.46h8.5l11.46,15.17l11.08-15.17h8.5l-15.55,20.46   l17.19,22.61h-8.63L563.12,796.15z"/>
	<path class="st1" d="M610.86,770.4h32.94v6.74h-25.32v10.81h24.69v6.68h-24.69v12.21h25.57v6.63h-33.19V770.4z"/>
	<path class="st1" d="M671.5,770.4h8.25l24.56,31.1v-31.1h7.43v43.07h-6.99l-25.82-32.61v32.61h-7.43V770.4z"/>
</g>
<g>
	<path class="st2" d="M711.84,505.57c0-47.99-55.32-71.99-118.54-71.99c-64.01,0-117.75,24-117.75,71.99v42.97h100.36v-45.76   c0-7.81,3.95-16.74,17.39-16.74c13.43,0,18.17,8.93,18.17,16.74v12.83c0,69.2-135.92,38.51-135.92,118.86v39.12h100.36v-40.24   c0-13.95,3.16-16.18,17.39-25.11l20.92-8.93l-0.13,153.73h97.56L711.84,505.57z"/>
</g>
</svg>